<svg id="Layer_1" data-name="Layer 1" xmlns="http://www.w3.org/2000/svg" viewBox="0 0 1500 819"><defs><style>.cls-1{fill:#fff;}</style></defs><path class="cls-1" d="M377.15,556.74,225.35,410.09V556.74H208.7V262.26h16.65V408.91l151-146.65h22.19L246.75,409.7l153.78,147Z"/><path class="cls-1" d="M824.84,625.81c0-18.63-15.85-33.69-35.28-33.69-19.81,0-34.87,15.06-34.87,33.69s15.06,33.69,34.87,33.69C809,659.5,824.84,644.44,824.84,625.81Zm-57.87,0c0-12.28,9.12-22.2,22.59-22.2,13.08,0,23,9.92,23,22.2s-9.91,14.86-23,14.86C776.09,640.67,767,638.1,767,625.81Z"/><path class="cls-1" d="M793.78,556.74h-7.65a7.2,7.2,0,0,1-6.7-4.54L663.53,262.26h18.23L790,536.53h.4l107.8-274.27H916L800.49,552.2A7.22,7.22,0,0,1,793.78,556.74Z"/><path class="cls-1" d="M597.31,193.19c0,18.63-15.85,33.69-35.28,33.69-19.81,0-34.87-15.06-34.87-33.69S542.22,159.5,562,159.5C581.46,159.5,597.31,174.56,597.31,193.19Zm-57.87,0c0,12.28,9.12,22.2,22.59,22.2,13.08,0,23-9.92,23-22.2s-9.91-14.86-23-14.86C548.56,178.33,539.44,180.9,539.44,193.19Z"/><path class="cls-1" d="M565.28,262.26h-5.7a8.67,8.67,0,0,0-8.05,5.44L436,556.74h18.23l108.2-274.27h.4l107.8,274.27h17.84l-115.15-289A8.66,8.66,0,0,0,565.28,262.26Z"/><path class="cls-1" d="M975.62,262.26h16.65V556.74H975.62Z"/><path class="cls-1" d="M1291.3,409.3c0,90-63,147.44-154.18,147.44h-59.46V262.26h59.46C1229.86,262.26,1291.3,319.33,1291.3,409.3Zm-197,131.59h43.6c79.27,0,135.95-48.35,135.95-131.59,0-83.63-56.68-130.8-135.55-130.8h-44Z"/></svg>